<?xml version="1.0" encoding="UTF-8"?>
<svg id="svg8" width="256" height="200" version="1.1" viewBox="0 0 67.733 52.917" xmlns="http://www.w3.org/2000/svg">
  <g id="layer1" fill="none" stroke="#ebebeb" stroke-linecap="round" stroke-linejoin="round">
    <g stroke-width="2.1167">
      <path id="path24" d="m6.6618 9.4967 11.292 0.70871-14.788 6.0476z"/>
      <path id="path26" d="m9.1187 18.426 18.048 14.93-5.6224 12.048z"/>
      <path id="path28" d="m22.962 24.332 8.5045-1.0394"/>
      <path id="path30" d="m29.199 26.317 12.142-1.3229"/>
      <path id="path32" d="m29.199 39.222 14.499 9.154"/>
      <path id="path34" d="m25.591 44.367-6.7486 7.1495"/>
      <path id="path36" d="m48.777 11.76c-11.612 8.6994 5.7181 27.863 10.755 36.527 2.0545 0.27015 3.9815-0.3514 5.8586-1.3229-0.8057-10.77 3.7152-38.78-9.9219-37.042-0.25424-2.5195 0.28448-5.1523 0.89769-7.7958-3.8492-0.18645-8.861 1.0656-12.001 3.26 1.882 2.0872 3.8712 4.1646 4.4117 6.3737z"/>
    </g>
    <path id="path38" d="m44.565 5.8485c5.9636 1.2039 9.0043-0.7016 11.8-3.1932" stroke-width="1.5875"/>
  </g>
</svg>
